<svg xmlns="http://www.w3.org/2000/svg" width="720" height="220" viewBox="0 0 720 220" role="img" aria-labelledby="title desc">
  <title id="title">Omavoice</title>
  <desc id="desc">Omavoice — your voice, better heard</desc>
  <defs>
    <linearGradient id="glow" x1="0" y1="0" x2="1" y2="1">
      <stop offset="0%" stop-color="#7CFFB2"/>
      <stop offset="100%" stop-color="#3ECF8E"/>
    </linearGradient>
    <linearGradient id="panel" x1="0" y1="0" x2="0" y2="1">
      <stop offset="0%" stop-color="#1A1F1C"/>
      <stop offset="100%" stop-color="#101412"/>
    </linearGradient>
  </defs>
  <rect width="720" height="220" rx="28" fill="url(#panel)"/>
  <rect x="1.5" y="1.5" width="717" height="217" rx="26.5" fill="none" stroke="#2A332E" stroke-width="3"/>

  <g transform="translate(56 61) scale(4.1)" fill="url(#glow)">
    <path fill-rule="evenodd" clip-rule="evenodd" d="M12 2a3.5 3.5 0 0 0-3.5 3.5v6a3.5 3.5 0 1 0 7 0v-6A3.5 3.5 0 0 0 12 2zm-5.5 7.25a.75.75 0 0 0-1.5 0 7 7 0 0 0 6.25 6.96V19.5H9a.75.75 0 0 0 0 1.5h6a.75.75 0 0 0 0-1.5h-2.25v-3.29A7 7 0 0 0 19 9.25a.75.75 0 0 0-1.5 0 5.5 5.5 0 1 1-11 0z"/>
  </g>

  <text x="200" y="108" fill="#F4F7F5" font-family="ui-sans-serif, system-ui, -apple-system, Segoe UI, Helvetica, Arial, sans-serif" font-size="54" font-weight="700" letter-spacing="-1.2">Omavoice</text>
  <text x="202" y="148" fill="#8B9A92" font-family="ui-sans-serif, system-ui, -apple-system, Segoe UI, Helvetica, Arial, sans-serif" font-size="20" font-weight="500">Your voice, better heard.</text>
</svg>
